<svg id="Layer_1" data-name="Layer 1" xmlns="http://www.w3.org/2000/svg" viewBox="0 0 733.33 308.12"><defs><style>.cls-1,.cls-3{fill:#606060;}.cls-1,.cls-2{opacity:0.1;}</style></defs><polygon class="cls-1" points="590.32 113.38 535.45 50.02 571.03 50.02 626.22 113.46 626.06 113.64 590.08 113.65 590.32 113.38"/><polygon class="cls-1" points="650.22 113.38 595.35 50.02 655.2 50.02 710.53 113.63 650 113.64 650.22 113.38"/><polygon class="cls-2" points="650.01 113.63 710.53 113.63 655.15 177.45 594.71 177.45 650.01 113.63"/><polygon class="cls-2" points="570.7 177.45 534.8 177.45 590.1 113.63 626.08 113.63 570.7 177.45"/><polygon class="cls-1" points="134.65 111.5 189.52 48.14 153.94 48.14 98.75 111.59 98.9 111.77 134.89 111.78 134.65 111.5"/><polygon class="cls-1" points="74.74 111.5 129.62 48.14 69.77 48.14 14.44 111.75 74.97 111.76 74.74 111.5"/><polygon class="cls-2" points="74.96 111.75 14.44 111.75 69.81 175.58 130.26 175.58 74.96 111.75"/><polygon class="cls-2" points="154.26 175.58 190.17 175.58 134.87 111.75 98.89 111.75 154.26 175.58"/><path class="cls-3" d="M307.2,105.51h129a0,0,0,0,1,0,0V129a0,0,0,0,1,0,0H319.15a12,12,0,0,1-12-12V105.51A0,0,0,0,1,307.2,105.51Z" transform="translate(743.44 234.5) rotate(-180)"/><path class="cls-3" d="M315.45,48.17h10.28a0,0,0,0,1,0,0V78.83a0,0,0,0,1,0,0H301.25a0,0,0,0,1,0,0V62.36A14.19,14.19,0,0,1,315.45,48.17Z"/><polygon class="cls-3" points="420.97 64.17 436.24 64.17 422.3 48.14 407.08 48.14 420.97 64.17"/><polygon class="cls-3" points="385.94 48.14 324.72 48.14 324.72 64.19 399.85 64.18 385.94 48.14"/><polygon class="cls-3" points="391.99 48.14 405.88 64.18 414.94 64.17 401.03 48.14 391.99 48.14"/><polygon class="cls-3" points="331.54 166.46 345.37 150.5 336.4 150.5 322.5 166.49 322.54 166.53 331.6 166.53 331.54 166.46"/><polygon class="cls-3" points="316.45 166.46 330.27 150.5 315.2 150.5 301.25 166.53 316.51 166.53 316.45 166.46"/><polygon class="cls-3" points="351.5 150.5 337.59 166.49 337.63 166.53 412.77 166.55 412.77 150.5 351.5 150.5"/><polygon points="436.24 64.19 420.98 64.19 421.05 64.26 407.18 80.27 422.27 80.27 436.24 64.19"/><polygon points="405.95 64.26 392.09 80.27 401.05 80.27 415 64.24 414.95 64.19 405.89 64.19 405.95 64.26"/><polygon points="316.5 166.53 301.25 166.53 315.21 182.61 330.44 182.61 316.5 166.53"/><path d="M423.61,115.36H324.72v-29a6.09,6.09,0,0,1,6.08-6.09H386l13.94-16,0,0h-86a12.64,12.64,0,0,0-12.63,12.63v43.82a10.81,10.81,0,0,0,10.81,10.8H412.77v29a6.09,6.09,0,0,1-6.08,6.09H337.63l13.95,16.08h73.85a10.81,10.81,0,0,0,10.81-10.81V128A12.62,12.62,0,0,0,423.61,115.36Z"/><polygon points="336.49 182.61 345.53 182.61 331.6 166.53 322.53 166.53 336.49 182.61"/><path d="M237.39,271.08a54.27,54.27,0,0,1-9-.54c-1.93-.36-2.9-.78-2.9-1.27l3-6.5a26.55,26.55,0,0,0,10.89.68c5.44-.93,13.2-1.05,22.85-1.05h1.72q3.89,0,5.51-1.4t1.63-4.75v-1.81c0-2.11-.44-3.62-1.31-4.53s-2.82-1.35-5.83-1.35h-21q-9.14,0-13.3-3.4t-4.16-11.08v-1.45a17.84,17.84,0,0,1,1.49-7.32,11.54,11.54,0,0,1,5.12-5.38q3.62-2,9.95-2h24.6a63.16,63.16,0,0,1,9.95.63c2.54.43,3.8.88,3.8,1.36l-1.85,5.93a59.2,59.2,0,0,0-10.5-.09c-5.54.34-13.13.85-22.47.85l-1-.08c-2.78,0-4.65.55-5.61,1.67a6.54,6.54,0,0,0-1.54,4.2v1.54a5.69,5.69,0,0,0,1.68,4.48c1.11,1,3,1.49,5.56,1.49h20.08a35.64,35.64,0,0,1,9.86,1.18,11,11,0,0,1,6.24,4.3q2.18,3.12,2.17,9.18V256q0,6.79-3.48,11t-12.07,4.16Z"/><path d="M316.82,261.49h.9l1.59-6.18L330.93,218H346.3l12.19,37.6,2,5.91h.9l2.78-8.9L375.34,218h13.91l-2.15,5.43-18.63,47.67H353.09l-12.3-35.55L339,229.74h-.91l-1.72,5.79-12.21,35.55H308.76L289.32,218H302"/><path d="M397.05,271.08V225.13l.07-7.24h55.47v8.68H409v13.21h33.83v9H409v22.34Z"/><path d="M484.17,271.08l-.1-44.59H460.55V217.8h59.17v8.69H496.11v44.59Z"/><rect x="243.13" y="217.98" width="37.85" height="8.55"/><rect x="225.45" y="262.15" width="41.74" height="8.74"/></svg>